PathFileType	4	(X/Y/Z)	AB10\squats_1.trc
DataRate	CameraRate	NumFrames	NumMarkers	Units	OrigDataRate	OrigDataStartFrame	OrigNumFrames
200.000000	200.000000	4	35	mm	200.000000	42	343
Frame#	Time	C7			LSHO			STRN			LASI			RASI			LPSI			RPSI			LGTR			RGTR			LTHL			LTHR			LKNE			LMKNE			LSHC			LSHL			LSHR			LANK			LMANK			LMT1			LMT5			LCAL			RTHC			RTHL			RTHR			RKNE			RMKNE			RSHC			RSHL			RSHR			RANK			RMANK			RMT1			RMT5			RCAL			LTHC			
		X1	Y1	Z1	X2	Y2	Z2	X3	Y3	Z3	X4	Y4	Z4	X5	Y5	Z5	X6	Y6	Z6	X7	Y7	Z7	X8	Y8	Z8	X9	Y9	Z9	X10	Y10	Z10	X11	Y11	Z11	X12	Y12	Z12	X13	Y13	Z13	X14	Y14	Z14	X15	Y15	Z15	X16	Y16	Z16	X17	Y17	Z17	X18	Y18	Z18	X19	Y19	Z19	X20	Y20	Z20	X21	Y21	Z21	X22	Y22	Z22	X23	Y23	Z23	X24	Y24	Z24	X25	Y25	Z25	X26	Y26	Z26	X27	Y27	Z27	X28	Y28	Z28	X29	Y29	Z29	X30	Y30	Z30	X31	Y31	Z31	X32	Y32	Z32	X33	Y33	Z33	X34	Y34	Z34	X35	Y35	Z35	

43	24.835	-3516.132328616469	1425.242609240126	2497.626448320265	-3539.323870319643	1373.786078110962	2652.239596912106	-3578.689967021962	1263.218101306735	2500.697794961903	-3426.343428789715	929.4860036012439	2628.480738467753	-3437.515307519518	918.2164435583321	2356.122490617722	-3247.496901389417	998.1804716115768	2540.670031431776	-3258.903583587782	1002.151777759545	2447.0249659509	-3368.424032858254	894.3460743741888	2700.069622166151	-3353.597849057687	879.5296025894536	2291.856289598508	-3562.550023649373	699.9667219470562	2656.791286506044	-3413.082093720124	602.2669359547154	2665.754909351888	-3550.05653766899	501.7823372934134	2707.483979293032	-3560.665469400939	482.7098284408568	2578.109899217445	-3479.298735063143	307.6979272683849	2722.907445180485	-3516.03912227344	194.9128907887474	2673.551884293973	-3416.779504187138	216.1949527806427	2656.756142291272	-3422.041085427974	98.19573437882603	2706.167509133528	-3451.967519478959	92.99582479070486	2620.50151165149	-3571.716678369268	62.40968308150605	2675.414788377576	-3517.005285397828	50.75781125846243	2762.819923473887	-3355.995275529647	73.37853874074045	2651.336132421187	-3434.55041078209	560.4511657578868	2363.873712770149	-3437.65440240205	716.6649742364903	2276.226030125726	-3572.43601796991	689.2962036298532	2357.014259982202	-3570.472560179081	474.3267690701125	2280.063033562456	-3583.56749748458	451.4469827528061	2400.26824962342	-3522.068480241657	202.9738985968841	2319.615054394581	-3427.254833346851	257.1696210541182	2306.55270835747	-3495.412168503176	313.2233617325574	2257.78797868969	-3414.325831212083	109.3749366168061	2266.989170304178	-3442.691506195714	103.7007304589838	2350.610465928681	-3567.559190054228	61.26781622291303	2292.061545309293	-3516.661164932738	51.58795965321427	2209.318121098034	-3349.664020643561	76.68257869522165	2318.407276909101	-3442.735720946733	740.8483862377783	2724.531235094397	
44	24.84	-3516.845693371226	1421.711880710325	2497.478227822474	-3539.93928633042	1370.206034578675	2652.091081736131	-3578.974164200828	1259.397085183606	2500.626716557308	-3425.323225591021	926.3507596257111	2628.275956541399	-3436.514410276776	914.9386999494203	2355.921943931062	-3246.702572693574	995.5252284893189	2540.484879182341	-3258.131366097005	999.417561270492	2446.813079795936	-3367.356599605459	891.8555446179657	2699.915371034697	-3352.57043193027	876.7270287613861	2291.521366079475	-3562.759875261504	699.0213005528447	2656.854974458095	-3414.147451641255	600.1963429896826	2666.017414288317	-3551.845085426642	500.8580747797494	2707.852982852762	-3562.536901852058	481.8515514704258	2578.524716168438	-3480.480042275412	307.3268324266308	2723.122674872287	-3516.643430611055	194.4344452160289	2673.661416069772	-3417.489883584672	216.1889960061811	2656.851383981906	-3422.110347023256	98.16961076226376	2706.158997971522	-3452.046834451105	92.97887074356819	2620.483207781993	-3571.722117410355	62.41563528561969	2675.447641539436	-3516.990610191411	50.74483010791222	2762.841096020071	-3356.015889706881	73.36422926528229	2651.31845548759	-3435.931989856335	558.302530311424	2363.499987280057	-3437.531545750277	714.4224193662185	2275.90959305087	-3572.733949499972	688.2540838701809	2356.532013365913	-3572.32697046762	473.23772735969	2279.484809523701	-3585.536446377453	450.6012923390922	2399.703703135162	-3522.73858224906	202.4342796613973	2319.484502054282	-3428.220536737806	257.0419395202092	2306.326824662023	-3496.682626512197	312.6977358253131	2257.456070047803	-3414.46475029062	109.376304574693	2266.989425704557	-3442.750583133121	103.6076045004858	2350.625092367707	-3567.579497310743	61.26216327843341	2292.058889518521	-3516.662587197855	51.58624601735291	2209.312016035411	-3349.711815901821	76.70445014738797	2318.423433792797	-3442.552443495295	738.9750998942135	2724.581596865595	
45	24.845	-3517.547610971409	1418.158307500889	2497.335866846544	-3540.554535089794	1366.593575071171	2651.943683922396	-3579.256540789218	1255.565527168244	2500.553208090441	-3424.321735268002	923.2023355730695	2628.070205425882	-3435.525338762281	911.6471426767437	2355.72437866881	-3245.921807032996	992.8465510975024	2540.294638149321	-3257.373327362091	996.6561458659247	2446.600674957105	-3366.309150735703	889.361075690101	2699.750746952775	-3351.558887238258	873.9144297652845	2291.178752588002	-3562.969070917378	698.0579518147783	2656.896231504774	-3415.21648613042	598.124738246998	2666.290593632639	-3553.624252106742	499.9345593025917	2708.215921379784	-3564.389676508878	480.9858157183354	2578.934484937751	-3481.654073437923	306.9562304084445	2723.333611571179	-3517.241616507852	193.9628231929875	2673.772446761339	-3418.195829285574	216.1848770230746	2656.94360120559	-3422.182326544079	98.14400646960887	2706.153225178744	-3452.122894427454	92.96350970980939	2620.472865932971	-3571.728973829886	62.42153288037277	2675.482498719683	-3516.974765025916	50.729335820785	2762.863837734271	-3356.038154912103	73.35164250028373	2651.300809453352	-3437.294727904386	556.1536783718204	2363.132538513048	-3437.410042884592	712.1645796580374	2275.594879222649	-3573.015488290463	687.1930250229503	2356.059708181869	-3574.161251837938	472.1530014848149	2278.915599546185	-3587.475715087285	449.7574202782599	2399.149334622075	-3523.396680931608	201.8975516428296	2319.359120190102	-3429.18037468796	256.9104304546489	2306.102058068525	-3497.940925971939	312.1714833862335	2257.130005863758	-3414.602120626329	109.3797124700241	2266.992004766477	-3442.809225545894	103.5116178592438	2350.638507542175	-3567.600217727232	61.254466364664	2292.05731765594	-3516.664749564096	51.58496466269554	2209.306525318689	-3349.760408174203	76.7299214183052	2318.44039558155	-3442.392440256485	737.101025869148	2724.624454048125	
46	24.85	-3518.2383995691	1414.582195928131	2497.199211880768	-3541.169326220692	1362.949391807771	2651.797376349412	-3579.538283304028	1251.724635836013	2500.476770532697	-3423.339193306943	920.0423418999319	2627.863977755479	-3434.54804730148	908.3437621079014	2355.530611267958	-3245.154146350802	990.14432463605	2540.099721221977	-3256.62913332331	993.8680436063178	2446.388223885568	-3365.281256187025	886.8616915130345	2699.576500928164	-3350.563725194759	871.0935507903635	2290.828990130521	-3563.176904894026	697.0767549206514	2656.917176237931	-3416.288125498379	596.0517006367796	2666.572212973605	-3555.393172711998	499.011404581037	2708.571902511526	-3566.223646952276	480.1130773091776	2579.338426703945	-3482.820682341036	306.5858984748209	2723.53972691893	-3517.833987022656	193.49776010726	2673.884186900736	-3418.897315517269	216.18228763806	2657.032636908982	-3422.25738917834	98.11925994477033	2706.150020324993	-3452.195937611645	92.94892200844653	2620.469839219284	-3571.737381878629	62.42724414710538	2675.519142336365	-3516.957951702992	50.71155605391758	2762.887879823034	-3356.062136477049	73.34097346706491	2651.283183951438	-3438.638987108039	554.0048951315255	2362.769258840476	-3437.291502850059	709.8935948835442	2275.282060244281	-3573.280549570824	686.1135214287743	2355.599580640979	-3575.976022707905	471.0731867702099	2278.355346445493	-3589.386253389852	448.9153532101462	2398.604755785418	-3524.04315919256	201.3637856683111	2319.238169218564	-3430.134219669028	256.7758253687807	2305.878302084025	-3499.186864750124	311.6447601849167	2256.809486367642	-3414.737795017757	109.3845728442608	2266.996496925315	-3442.868015139616	103.4137066700596	2350.650247350419	-3567.621298999482	61.24450184364686	2292.056888499682	-3516.667604975577	51.58404451612303	2209.30172911738	-3349.809379637796	76.75889892745936	2318.458254213045	-3442.254277323056	735.2248716506738	2724.660468154977	
